/* XPM */
static char *_98350bd40594e12b9ba752d5c1f9af3[] = {
/* columns rows colors chars-per-pixel */
"80 80 4 1 ",
"1 c #ff0000",
"2 c #00ff00",
"3 c #0000ff",
"4 c #ffffff",
/* pixels */

"11111111111111111111222222222222222222223333333333333333333344444444444444444444",
"11111111111111111111222222222222222222223333333333333333333344444444444444444444",
"11111111111111111111222222222222222222223333333333333333333344444444444444444444",
"11111111111111111111222222222222222222223333333333333333333344444444444444444444",
"11111111111111111111222222222222222222223333333333333333333344444444444444444444",
"11111111111111111111222222222222222222223333333333333333333344444444444444444444",
"11111111111111111111222222222222222222223333333333333333333344444444444444444444",
"11111111111111111111222222222222222222223333333333333333333344444444444444444444",
"11111111111111111111222222222222222222223333333333333333333344444444444444444444",
"11111111111111111111222222222222222222223333333333333333333344444444444444444444",
"11111111111111111111222222222222222222223333333333333333333344444444444444444444",
"11111111111111111111222222222222222222223333333333333333333344444444444444444444",
"11111111111111111111222222222222222222223333333333333333333344444444444444444444",
"11111111111111111111222222222222222222223333333333333333333344444444444444444444",
"11111111111111111111222222222222222222223333333333333333333344444444444444444444",
"11111111111111111111222222222222222222223333333333333333333344444444444444444444",
"11111111111111111111222222222222222222223333333333333333333344444444444444444444",
"11111111111111111111222222222222222222223333333333333333333344444444444444444444",
"11111111111111111111222222222222222222223333333333333333333344444444444444444444",
"11111111111111111111222222222222222222223333333333333333333344444444444444444444",
"11111111111111111111222222222222222222223333333333333333333344444444444444444444",
"11111111111111111111222222222222222222223333333333333333333344444444444444444444",
"11111111111111111111222222222222222222223333333333333333333344444444444444444444",
"11111111111111111111222222222222222222223333333333333333333344444444444444444444",
"11111111111111111111222222222222222222223333333333333333333344444444444444444444",
"11111111111111111111222222222222222222223333333333333333333344444444444444444444",
"11111111111111111111222222222222222222223333333333333333333344444444444444444444",
"11111111111111111111222222222222222222223333333333333333333344444444444444444444",
"11111111111111111111222222222222222222223333333333333333333344444444444444444444",
"11111111111111111111222222222222222222223333333333333333333344444444444444444444",
"11111111111111111111222222222222222222223333333333333333333344444444444444444444",
"11111111111111111111222222222222222222223333333333333333333344444444444444444444",
"11111111111111111111222222222222222222223333333333333333333344444444444444444444",
"11111111111111111111222222222222222222223333333333333333333344444444444444444444",
"11111111111111111111222222222222222222223333333333333333333344444444444444444444",
"11111111111111111111222222222222222222223333333333333333333344444444444444444444",
"11111111111111111111222222222222222222223333333333333333333344444444444444444444",
"11111111111111111111222222222222222222223333333333333333333344444444444444444444",
"11111111111111111111222222222222222222223333333333333333333344444444444444444444",
"11111111111111111111222222222222222222223333333333333333333344444444444444444444",
"11111111111111111111222222222222222222223333333333333333333344444444444444444444",
"11111111111111111111222222222222222222223333333333333333333344444444444444444444",
"11111111111111111111222222222222222222223333333333333333333344444444444444444444",
"11111111111111111111222222222222222222223333333333333333333344444444444444444444",
"11111111111111111111222222222222222222223333333333333333333344444444444444444444",
"11111111111111111111222222222222222222223333333333333333333344444444444444444444",
"11111111111111111111222222222222222222223333333333333333333344444444444444444444",
"11111111111111111111222222222222222222223333333333333333333344444444444444444444",
"11111111111111111111222222222222222222223333333333333333333344444444444444444444",
"11111111111111111111222222222222222222223333333333333333333344444444444444444444",
"11111111111111111111222222222222222222223333333333333333333344444444444444444444",
"11111111111111111111222222222222222222223333333333333333333344444444444444444444",
"11111111111111111111222222222222222222223333333333333333333344444444444444444444",
"11111111111111111111222222222222222222223333333333333333333344444444444444444444",
"11111111111111111111222222222222222222223333333333333333333344444444444444444444",
"11111111111111111111222222222222222222223333333333333333333344444444444444444444",
"11111111111111111111222222222222222222223333333333333333333344444444444444444444",
"11111111111111111111222222222222222222223333333333333333333344444444444444444444",
"11111111111111111111222222222222222222223333333333333333333344444444444444444444",
"11111111111111111111222222222222222222223333333333333333333344444444444444444444",
"11111111111111111111222222222222222222223333333333333333333344444444444444444444",
"11111111111111111111222222222222222222223333333333333333333344444444444444444444",
"11111111111111111111222222222222222222223333333333333333333344444444444444444444",
"11111111111111111111222222222222222222223333333333333333333344444444444444444444",
"11111111111111111111222222222222222222223333333333333333333344444444444444444444",
"11111111111111111111222222222222222222223333333333333333333344444444444444444444",
"11111111111111111111222222222222222222223333333333333333333344444444444444444444",
"11111111111111111111222222222222222222223333333333333333333344444444444444444444",
"11111111111111111111222222222222222222223333333333333333333344444444444444444444",
"11111111111111111111222222222222222222223333333333333333333344444444444444444444",
"11111111111111111111222222222222222222223333333333333333333344444444444444444444",
"11111111111111111111222222222222222222223333333333333333333344444444444444444444",
"11111111111111111111222222222222222222223333333333333333333344444444444444444444",
"11111111111111111111222222222222222222223333333333333333333344444444444444444444",
"11111111111111111111222222222222222222223333333333333333333344444444444444444444",
"11111111111111111111222222222222222222223333333333333333333344444444444444444444",
"11111111111111111111222222222222222222223333333333333333333344444444444444444444",
"11111111111111111111222222222222222222223333333333333333333344444444444444444444",
"11111111111111111111222222222222222222223333333333333333333344444444444444444444",
"11111111111111111111222222222222222222223333333333333333333344444444444444444444",
};
