/* XPM */
static char *_98350bd40594e12b9ba752d5c1f9af3[] = {
/* columns rows colors chars-per-pixel */
"4 4 4 1 ",
"1 c #800000",
"2 c #ffe119",
"3 c #42d4f4",
"4 c #f032e6",
/* pixels */

"1234",
"1234",
"1234",
"1234",
};
